<mxfile host="Electron" modified="2025-08-02T17:26:25.150Z" agent="Mozilla/5.0 (Windows NT 10.0; Win64; x64) AppleWebKit/537.36 (KHTML, like Gecko) draw.io/23.0.2 Chrome/120.0.6099.109 Electron/28.1.0 Safari/537.36" etag="btGZJUhSqIDs2ksQaDM7" version="23.0.2" type="device" pages="4">
  <diagram name="Home" id="rgl8ufUij3wwAr2BmUFq">
    <mxGraphModel dx="1593" dy="929" grid="0" gridSize="10" guides="1" tooltips="1" connect="1" arrows="1" fold="1" page="0" pageScale="1" pageWidth="1169" pageHeight="827" math="0" shadow="0">
      <root>
        <mxCell id="0" />
        <mxCell id="1" parent="0" />
        <mxCell id="qqLGKBWdwm007KKXgvy--1" value="" style="rounded=0;whiteSpace=wrap;html=1;" vertex="1" parent="1">
          <mxGeometry x="80" y="40" width="640" height="360" as="geometry" />
        </mxCell>
        <mxCell id="qqLGKBWdwm007KKXgvy--6" value="" style="ellipse;whiteSpace=wrap;html=1;aspect=fixed;fillColor=#fff2cc;strokeColor=default;" vertex="1" parent="1">
          <mxGeometry x="160" y="120" width="140" height="140" as="geometry" />
        </mxCell>
        <mxCell id="qqLGKBWdwm007KKXgvy--8" value="" style="rounded=0;whiteSpace=wrap;html=1;fillColor=#f5f5f5;fontColor=#333333;strokeColor=default;" vertex="1" parent="1">
          <mxGeometry x="345" y="170" width="265" height="100" as="geometry" />
        </mxCell>
        <mxCell id="qqLGKBWdwm007KKXgvy--9" value="" style="rounded=0;whiteSpace=wrap;html=1;fillColor=#f5f5f5;fontColor=#333333;strokeColor=default;" vertex="1" parent="1">
          <mxGeometry x="345" y="120" width="265" height="40" as="geometry" />
        </mxCell>
        <mxCell id="qqLGKBWdwm007KKXgvy--15" value="" style="group" vertex="1" connectable="0" parent="1">
          <mxGeometry x="120" y="360" width="160" height="100" as="geometry" />
        </mxCell>
        <mxCell id="qqLGKBWdwm007KKXgvy--10" value="" style="group" vertex="1" connectable="0" parent="qqLGKBWdwm007KKXgvy--15">
          <mxGeometry width="160" height="66.66666666666667" as="geometry" />
        </mxCell>
        <mxCell id="qqLGKBWdwm007KKXgvy--11" value="" style="rounded=0;whiteSpace=wrap;html=1;fillColor=#fff2cc;strokeColor=default;" vertex="1" parent="qqLGKBWdwm007KKXgvy--10">
          <mxGeometry width="160" height="66.66666666666667" as="geometry" />
        </mxCell>
        <mxCell id="qqLGKBWdwm007KKXgvy--12" value="" style="endArrow=none;html=1;rounded=0;" edge="1" parent="qqLGKBWdwm007KKXgvy--10">
          <mxGeometry width="50" height="50" relative="1" as="geometry">
            <mxPoint y="66.66666666666667" as="sourcePoint" />
            <mxPoint x="160" as="targetPoint" />
          </mxGeometry>
        </mxCell>
        <mxCell id="qqLGKBWdwm007KKXgvy--13" value="" style="endArrow=none;html=1;rounded=0;" edge="1" parent="qqLGKBWdwm007KKXgvy--10">
          <mxGeometry width="50" height="50" relative="1" as="geometry">
            <mxPoint as="sourcePoint" />
            <mxPoint x="160" y="66.66666666666667" as="targetPoint" />
          </mxGeometry>
        </mxCell>
        <mxCell id="qqLGKBWdwm007KKXgvy--14" value="" style="rounded=0;whiteSpace=wrap;html=1;fillColor=#f5f5f5;fontColor=#333333;strokeColor=default;" vertex="1" parent="qqLGKBWdwm007KKXgvy--15">
          <mxGeometry y="66.66666666666667" width="160" height="33.333333333333336" as="geometry" />
        </mxCell>
        <mxCell id="qqLGKBWdwm007KKXgvy--16" value="" style="group" vertex="1" connectable="0" parent="1">
          <mxGeometry x="320" y="360" width="160" height="100" as="geometry" />
        </mxCell>
        <mxCell id="qqLGKBWdwm007KKXgvy--17" value="" style="group" vertex="1" connectable="0" parent="qqLGKBWdwm007KKXgvy--16">
          <mxGeometry width="160" height="66.66666666666667" as="geometry" />
        </mxCell>
        <mxCell id="qqLGKBWdwm007KKXgvy--18" value="" style="rounded=0;whiteSpace=wrap;html=1;fillColor=#fff2cc;strokeColor=default;" vertex="1" parent="qqLGKBWdwm007KKXgvy--17">
          <mxGeometry width="160" height="66.66666666666667" as="geometry" />
        </mxCell>
        <mxCell id="qqLGKBWdwm007KKXgvy--19" value="" style="endArrow=none;html=1;rounded=0;" edge="1" parent="qqLGKBWdwm007KKXgvy--17">
          <mxGeometry width="50" height="50" relative="1" as="geometry">
            <mxPoint y="66.66666666666667" as="sourcePoint" />
            <mxPoint x="160" as="targetPoint" />
          </mxGeometry>
        </mxCell>
        <mxCell id="qqLGKBWdwm007KKXgvy--20" value="" style="endArrow=none;html=1;rounded=0;" edge="1" parent="qqLGKBWdwm007KKXgvy--17">
          <mxGeometry width="50" height="50" relative="1" as="geometry">
            <mxPoint as="sourcePoint" />
            <mxPoint x="160" y="66.66666666666667" as="targetPoint" />
          </mxGeometry>
        </mxCell>
        <mxCell id="qqLGKBWdwm007KKXgvy--21" value="" style="rounded=0;whiteSpace=wrap;html=1;fillColor=#f5f5f5;fontColor=#333333;strokeColor=default;" vertex="1" parent="qqLGKBWdwm007KKXgvy--16">
          <mxGeometry y="66.66666666666667" width="160" height="33.333333333333336" as="geometry" />
        </mxCell>
        <mxCell id="qqLGKBWdwm007KKXgvy--22" value="" style="group" vertex="1" connectable="0" parent="1">
          <mxGeometry x="520" y="360" width="160" height="100" as="geometry" />
        </mxCell>
        <mxCell id="qqLGKBWdwm007KKXgvy--23" value="" style="group" vertex="1" connectable="0" parent="qqLGKBWdwm007KKXgvy--22">
          <mxGeometry width="160" height="66.66666666666667" as="geometry" />
        </mxCell>
        <mxCell id="qqLGKBWdwm007KKXgvy--24" value="" style="rounded=0;whiteSpace=wrap;html=1;fillColor=#fff2cc;strokeColor=default;" vertex="1" parent="qqLGKBWdwm007KKXgvy--23">
          <mxGeometry width="160" height="66.66666666666667" as="geometry" />
        </mxCell>
        <mxCell id="qqLGKBWdwm007KKXgvy--25" value="" style="endArrow=none;html=1;rounded=0;" edge="1" parent="qqLGKBWdwm007KKXgvy--23">
          <mxGeometry width="50" height="50" relative="1" as="geometry">
            <mxPoint y="66.66666666666667" as="sourcePoint" />
            <mxPoint x="160" as="targetPoint" />
          </mxGeometry>
        </mxCell>
        <mxCell id="qqLGKBWdwm007KKXgvy--26" value="" style="endArrow=none;html=1;rounded=0;" edge="1" parent="qqLGKBWdwm007KKXgvy--23">
          <mxGeometry width="50" height="50" relative="1" as="geometry">
            <mxPoint as="sourcePoint" />
            <mxPoint x="160" y="66.66666666666667" as="targetPoint" />
          </mxGeometry>
        </mxCell>
        <mxCell id="qqLGKBWdwm007KKXgvy--27" value="" style="rounded=0;whiteSpace=wrap;html=1;fillColor=#f5f5f5;fontColor=#333333;strokeColor=default;" vertex="1" parent="qqLGKBWdwm007KKXgvy--22">
          <mxGeometry y="66.66666666666667" width="160" height="33.333333333333336" as="geometry" />
        </mxCell>
        <mxCell id="qqLGKBWdwm007KKXgvy--28" value="" style="rounded=0;whiteSpace=wrap;html=1;fillColor=#f5f5f5;fontColor=#333333;strokeColor=default;" vertex="1" parent="1">
          <mxGeometry x="80" y="40" width="640" height="40" as="geometry" />
        </mxCell>
        <mxCell id="JnsY3XRmOZip7RWGj5CE-1" value="" style="rounded=0;whiteSpace=wrap;html=1;fillColor=#f5f5f5;fontColor=#333333;strokeColor=default;" vertex="1" parent="1">
          <mxGeometry x="840" y="40" width="280" height="40" as="geometry" />
        </mxCell>
        <mxCell id="JnsY3XRmOZip7RWGj5CE-2" value="" style="rounded=0;whiteSpace=wrap;html=1;" vertex="1" parent="1">
          <mxGeometry x="840" y="80" width="280" height="470" as="geometry" />
        </mxCell>
        <mxCell id="JnsY3XRmOZip7RWGj5CE-3" value="" style="ellipse;whiteSpace=wrap;html=1;aspect=fixed;fillColor=#fff2cc;strokeColor=default;" vertex="1" parent="1">
          <mxGeometry x="910" y="120" width="140" height="140" as="geometry" />
        </mxCell>
        <mxCell id="JnsY3XRmOZip7RWGj5CE-4" value="" style="rounded=0;whiteSpace=wrap;html=1;fillColor=#f5f5f5;fontColor=#333333;strokeColor=default;" vertex="1" parent="1">
          <mxGeometry x="870" y="350" width="230" height="140" as="geometry" />
        </mxCell>
        <mxCell id="JnsY3XRmOZip7RWGj5CE-5" value="" style="rounded=0;whiteSpace=wrap;html=1;fillColor=#f5f5f5;fontColor=#333333;strokeColor=default;" vertex="1" parent="1">
          <mxGeometry x="870" y="300" width="230" height="40" as="geometry" />
        </mxCell>
        <mxCell id="upsQFDcetkco1798Moxa-1" value="" style="rounded=0;whiteSpace=wrap;html=1;fillColor=#f5f5f5;fontColor=#333333;strokeColor=default;" vertex="1" parent="1">
          <mxGeometry x="240" y="300" width="320" height="40" as="geometry" />
        </mxCell>
        <mxCell id="cgk91giQgIbzmtQcjHrw-1" value="" style="rounded=0;whiteSpace=wrap;html=1;fillColor=#f5f5f5;fontColor=#333333;strokeColor=default;" vertex="1" parent="1">
          <mxGeometry x="880" y="520" width="200" height="40" as="geometry" />
        </mxCell>
        <mxCell id="cgk91giQgIbzmtQcjHrw-15" value="" style="rounded=0;whiteSpace=wrap;html=1;" vertex="1" parent="1">
          <mxGeometry x="1200" y="40" width="280" height="440" as="geometry" />
        </mxCell>
        <mxCell id="cgk91giQgIbzmtQcjHrw-20" value="" style="group" vertex="1" connectable="0" parent="1">
          <mxGeometry x="1260" y="90" width="160" height="100" as="geometry" />
        </mxCell>
        <mxCell id="cgk91giQgIbzmtQcjHrw-21" value="" style="group" vertex="1" connectable="0" parent="cgk91giQgIbzmtQcjHrw-20">
          <mxGeometry width="160" height="66.66666666666667" as="geometry" />
        </mxCell>
        <mxCell id="cgk91giQgIbzmtQcjHrw-22" value="" style="rounded=0;whiteSpace=wrap;html=1;fillColor=#fff2cc;strokeColor=default;" vertex="1" parent="cgk91giQgIbzmtQcjHrw-21">
          <mxGeometry width="160" height="66.66666666666667" as="geometry" />
        </mxCell>
        <mxCell id="cgk91giQgIbzmtQcjHrw-23" value="" style="endArrow=none;html=1;rounded=0;" edge="1" parent="cgk91giQgIbzmtQcjHrw-21">
          <mxGeometry width="50" height="50" relative="1" as="geometry">
            <mxPoint y="66.66666666666667" as="sourcePoint" />
            <mxPoint x="160" as="targetPoint" />
          </mxGeometry>
        </mxCell>
        <mxCell id="cgk91giQgIbzmtQcjHrw-24" value="" style="endArrow=none;html=1;rounded=0;" edge="1" parent="cgk91giQgIbzmtQcjHrw-21">
          <mxGeometry width="50" height="50" relative="1" as="geometry">
            <mxPoint as="sourcePoint" />
            <mxPoint x="160" y="66.66666666666667" as="targetPoint" />
          </mxGeometry>
        </mxCell>
        <mxCell id="cgk91giQgIbzmtQcjHrw-25" value="" style="rounded=0;whiteSpace=wrap;html=1;fillColor=#f5f5f5;fontColor=#333333;strokeColor=default;" vertex="1" parent="cgk91giQgIbzmtQcjHrw-20">
          <mxGeometry y="66.66666666666667" width="160" height="33.333333333333336" as="geometry" />
        </mxCell>
        <mxCell id="cgk91giQgIbzmtQcjHrw-26" value="" style="rounded=0;whiteSpace=wrap;html=1;fillColor=#f5f5f5;fontColor=#333333;strokeColor=default;" vertex="1" parent="1">
          <mxGeometry x="1240" y="30" width="200" height="40" as="geometry" />
        </mxCell>
        <mxCell id="cgk91giQgIbzmtQcjHrw-27" value="" style="group" vertex="1" connectable="0" parent="1">
          <mxGeometry x="1260" y="210" width="160" height="100" as="geometry" />
        </mxCell>
        <mxCell id="cgk91giQgIbzmtQcjHrw-28" value="" style="group" vertex="1" connectable="0" parent="cgk91giQgIbzmtQcjHrw-27">
          <mxGeometry width="160" height="66.66666666666667" as="geometry" />
        </mxCell>
        <mxCell id="cgk91giQgIbzmtQcjHrw-29" value="" style="rounded=0;whiteSpace=wrap;html=1;fillColor=#fff2cc;strokeColor=default;" vertex="1" parent="cgk91giQgIbzmtQcjHrw-28">
          <mxGeometry width="160" height="66.66666666666667" as="geometry" />
        </mxCell>
        <mxCell id="cgk91giQgIbzmtQcjHrw-30" value="" style="endArrow=none;html=1;rounded=0;" edge="1" parent="cgk91giQgIbzmtQcjHrw-28">
          <mxGeometry width="50" height="50" relative="1" as="geometry">
            <mxPoint y="66.66666666666667" as="sourcePoint" />
            <mxPoint x="160" as="targetPoint" />
          </mxGeometry>
        </mxCell>
        <mxCell id="cgk91giQgIbzmtQcjHrw-31" value="" style="endArrow=none;html=1;rounded=0;" edge="1" parent="cgk91giQgIbzmtQcjHrw-28">
          <mxGeometry width="50" height="50" relative="1" as="geometry">
            <mxPoint as="sourcePoint" />
            <mxPoint x="160" y="66.66666666666667" as="targetPoint" />
          </mxGeometry>
        </mxCell>
        <mxCell id="cgk91giQgIbzmtQcjHrw-32" value="" style="rounded=0;whiteSpace=wrap;html=1;fillColor=#f5f5f5;fontColor=#333333;strokeColor=default;" vertex="1" parent="cgk91giQgIbzmtQcjHrw-27">
          <mxGeometry y="66.66666666666667" width="160" height="33.333333333333336" as="geometry" />
        </mxCell>
        <mxCell id="cgk91giQgIbzmtQcjHrw-33" value="" style="group" vertex="1" connectable="0" parent="1">
          <mxGeometry x="1260" y="330" width="160" height="100" as="geometry" />
        </mxCell>
        <mxCell id="cgk91giQgIbzmtQcjHrw-34" value="" style="group" vertex="1" connectable="0" parent="cgk91giQgIbzmtQcjHrw-33">
          <mxGeometry width="160" height="66.66666666666667" as="geometry" />
        </mxCell>
        <mxCell id="cgk91giQgIbzmtQcjHrw-35" value="" style="rounded=0;whiteSpace=wrap;html=1;fillColor=#fff2cc;strokeColor=default;" vertex="1" parent="cgk91giQgIbzmtQcjHrw-34">
          <mxGeometry width="160" height="66.66666666666667" as="geometry" />
        </mxCell>
        <mxCell id="cgk91giQgIbzmtQcjHrw-36" value="" style="endArrow=none;html=1;rounded=0;" edge="1" parent="cgk91giQgIbzmtQcjHrw-34">
          <mxGeometry width="50" height="50" relative="1" as="geometry">
            <mxPoint y="66.66666666666667" as="sourcePoint" />
            <mxPoint x="160" as="targetPoint" />
          </mxGeometry>
        </mxCell>
        <mxCell id="cgk91giQgIbzmtQcjHrw-37" value="" style="endArrow=none;html=1;rounded=0;" edge="1" parent="cgk91giQgIbzmtQcjHrw-34">
          <mxGeometry width="50" height="50" relative="1" as="geometry">
            <mxPoint as="sourcePoint" />
            <mxPoint x="160" y="66.66666666666667" as="targetPoint" />
          </mxGeometry>
        </mxCell>
        <mxCell id="cgk91giQgIbzmtQcjHrw-38" value="" style="rounded=0;whiteSpace=wrap;html=1;fillColor=#f5f5f5;fontColor=#333333;strokeColor=default;" vertex="1" parent="cgk91giQgIbzmtQcjHrw-33">
          <mxGeometry y="66.66666666666667" width="160" height="33.333333333333336" as="geometry" />
        </mxCell>
        <mxCell id="cgk91giQgIbzmtQcjHrw-40" value="" style="endArrow=classic;startArrow=classic;html=1;rounded=0;fillColor=#dae8fc;strokeColor=#6c8ebf;strokeWidth=3;" edge="1" parent="1">
          <mxGeometry width="50" height="50" relative="1" as="geometry">
            <mxPoint x="1090" y="580" as="sourcePoint" />
            <mxPoint x="1090" y="120" as="targetPoint" />
          </mxGeometry>
        </mxCell>
        <mxCell id="cgk91giQgIbzmtQcjHrw-41" value="" style="endArrow=classic;startArrow=classic;html=1;rounded=0;fillColor=#dae8fc;strokeColor=#6c8ebf;strokeWidth=3;" edge="1" parent="1">
          <mxGeometry width="50" height="50" relative="1" as="geometry">
            <mxPoint x="1450" y="580" as="sourcePoint" />
            <mxPoint x="1450" y="120" as="targetPoint" />
          </mxGeometry>
        </mxCell>
        <mxCell id="cgk91giQgIbzmtQcjHrw-42" value="" style="endArrow=classic;startArrow=classic;html=1;rounded=0;fillColor=#dae8fc;strokeColor=#6c8ebf;strokeWidth=3;" edge="1" parent="1">
          <mxGeometry width="50" height="50" relative="1" as="geometry">
            <mxPoint x="690" y="480" as="sourcePoint" />
            <mxPoint x="690" y="120" as="targetPoint" />
          </mxGeometry>
        </mxCell>
      </root>
    </mxGraphModel>
  </diagram>
  <diagram id="OV8vgC-9E3MYL21c3BR3" name="Projects">
    <mxGraphModel dx="1687" dy="984" grid="1" gridSize="10" guides="1" tooltips="1" connect="1" arrows="1" fold="1" page="1" pageScale="1" pageWidth="1169" pageHeight="827" math="0" shadow="0">
      <root>
        <mxCell id="0" />
        <mxCell id="1" parent="0" />
        <mxCell id="Wci3CiGm1xmGibPQf-Mp-1" value="" style="rounded=0;whiteSpace=wrap;html=1;" vertex="1" parent="1">
          <mxGeometry x="80" y="120" width="640" height="360" as="geometry" />
        </mxCell>
        <mxCell id="Wci3CiGm1xmGibPQf-Mp-23" value="" style="rounded=0;whiteSpace=wrap;html=1;fillColor=#f5f5f5;fontColor=#333333;strokeColor=default;" vertex="1" parent="1">
          <mxGeometry x="80" y="120" width="640" height="40" as="geometry" />
        </mxCell>
        <mxCell id="4gytuEafdw4eIJh5fJrU-1" value="" style="group" vertex="1" connectable="0" parent="1">
          <mxGeometry x="120" y="250" width="160" height="100" as="geometry" />
        </mxCell>
        <mxCell id="4gytuEafdw4eIJh5fJrU-2" value="" style="group" vertex="1" connectable="0" parent="4gytuEafdw4eIJh5fJrU-1">
          <mxGeometry width="160" height="66.66666666666667" as="geometry" />
        </mxCell>
        <mxCell id="4gytuEafdw4eIJh5fJrU-3" value="" style="rounded=0;whiteSpace=wrap;html=1;fillColor=#fff2cc;strokeColor=default;" vertex="1" parent="4gytuEafdw4eIJh5fJrU-2">
          <mxGeometry width="160" height="66.66666666666667" as="geometry" />
        </mxCell>
        <mxCell id="4gytuEafdw4eIJh5fJrU-4" value="" style="endArrow=none;html=1;rounded=0;" edge="1" parent="4gytuEafdw4eIJh5fJrU-2">
          <mxGeometry width="50" height="50" relative="1" as="geometry">
            <mxPoint y="66.66666666666667" as="sourcePoint" />
            <mxPoint x="160" as="targetPoint" />
          </mxGeometry>
        </mxCell>
        <mxCell id="4gytuEafdw4eIJh5fJrU-5" value="" style="endArrow=none;html=1;rounded=0;" edge="1" parent="4gytuEafdw4eIJh5fJrU-2">
          <mxGeometry width="50" height="50" relative="1" as="geometry">
            <mxPoint as="sourcePoint" />
            <mxPoint x="160" y="66.66666666666667" as="targetPoint" />
          </mxGeometry>
        </mxCell>
        <mxCell id="4gytuEafdw4eIJh5fJrU-6" value="" style="rounded=0;whiteSpace=wrap;html=1;fillColor=#f5f5f5;fontColor=#333333;strokeColor=default;" vertex="1" parent="4gytuEafdw4eIJh5fJrU-1">
          <mxGeometry y="66.66666666666667" width="160" height="33.333333333333336" as="geometry" />
        </mxCell>
        <mxCell id="4gytuEafdw4eIJh5fJrU-7" value="" style="group" vertex="1" connectable="0" parent="1">
          <mxGeometry x="320" y="250" width="160" height="100" as="geometry" />
        </mxCell>
        <mxCell id="4gytuEafdw4eIJh5fJrU-8" value="" style="group" vertex="1" connectable="0" parent="4gytuEafdw4eIJh5fJrU-7">
          <mxGeometry width="160" height="66.66666666666667" as="geometry" />
        </mxCell>
        <mxCell id="4gytuEafdw4eIJh5fJrU-9" value="" style="rounded=0;whiteSpace=wrap;html=1;fillColor=#fff2cc;strokeColor=default;" vertex="1" parent="4gytuEafdw4eIJh5fJrU-8">
          <mxGeometry width="160" height="66.66666666666667" as="geometry" />
        </mxCell>
        <mxCell id="4gytuEafdw4eIJh5fJrU-10" value="" style="endArrow=none;html=1;rounded=0;" edge="1" parent="4gytuEafdw4eIJh5fJrU-8">
          <mxGeometry width="50" height="50" relative="1" as="geometry">
            <mxPoint y="66.66666666666667" as="sourcePoint" />
            <mxPoint x="160" as="targetPoint" />
          </mxGeometry>
        </mxCell>
        <mxCell id="4gytuEafdw4eIJh5fJrU-11" value="" style="endArrow=none;html=1;rounded=0;" edge="1" parent="4gytuEafdw4eIJh5fJrU-8">
          <mxGeometry width="50" height="50" relative="1" as="geometry">
            <mxPoint as="sourcePoint" />
            <mxPoint x="160" y="66.66666666666667" as="targetPoint" />
          </mxGeometry>
        </mxCell>
        <mxCell id="4gytuEafdw4eIJh5fJrU-12" value="" style="rounded=0;whiteSpace=wrap;html=1;fillColor=#f5f5f5;fontColor=#333333;strokeColor=default;" vertex="1" parent="4gytuEafdw4eIJh5fJrU-7">
          <mxGeometry y="66.66666666666667" width="160" height="33.333333333333336" as="geometry" />
        </mxCell>
        <mxCell id="4gytuEafdw4eIJh5fJrU-13" value="" style="group" vertex="1" connectable="0" parent="1">
          <mxGeometry x="520" y="250" width="160" height="100" as="geometry" />
        </mxCell>
        <mxCell id="4gytuEafdw4eIJh5fJrU-14" value="" style="group" vertex="1" connectable="0" parent="4gytuEafdw4eIJh5fJrU-13">
          <mxGeometry width="160" height="66.66666666666667" as="geometry" />
        </mxCell>
        <mxCell id="4gytuEafdw4eIJh5fJrU-15" value="" style="rounded=0;whiteSpace=wrap;html=1;fillColor=#fff2cc;strokeColor=default;" vertex="1" parent="4gytuEafdw4eIJh5fJrU-14">
          <mxGeometry width="160" height="66.66666666666667" as="geometry" />
        </mxCell>
        <mxCell id="4gytuEafdw4eIJh5fJrU-16" value="" style="endArrow=none;html=1;rounded=0;" edge="1" parent="4gytuEafdw4eIJh5fJrU-14">
          <mxGeometry width="50" height="50" relative="1" as="geometry">
            <mxPoint y="66.66666666666667" as="sourcePoint" />
            <mxPoint x="160" as="targetPoint" />
          </mxGeometry>
        </mxCell>
        <mxCell id="4gytuEafdw4eIJh5fJrU-17" value="" style="endArrow=none;html=1;rounded=0;" edge="1" parent="4gytuEafdw4eIJh5fJrU-14">
          <mxGeometry width="50" height="50" relative="1" as="geometry">
            <mxPoint as="sourcePoint" />
            <mxPoint x="160" y="66.66666666666667" as="targetPoint" />
          </mxGeometry>
        </mxCell>
        <mxCell id="4gytuEafdw4eIJh5fJrU-18" value="" style="rounded=0;whiteSpace=wrap;html=1;fillColor=#f5f5f5;fontColor=#333333;strokeColor=default;" vertex="1" parent="4gytuEafdw4eIJh5fJrU-13">
          <mxGeometry y="66.66666666666667" width="160" height="33.333333333333336" as="geometry" />
        </mxCell>
        <mxCell id="4gytuEafdw4eIJh5fJrU-19" value="" style="group" vertex="1" connectable="0" parent="1">
          <mxGeometry x="120" y="390" width="160" height="100" as="geometry" />
        </mxCell>
        <mxCell id="4gytuEafdw4eIJh5fJrU-20" value="" style="group" vertex="1" connectable="0" parent="4gytuEafdw4eIJh5fJrU-19">
          <mxGeometry width="160" height="66.66666666666667" as="geometry" />
        </mxCell>
        <mxCell id="4gytuEafdw4eIJh5fJrU-21" value="" style="rounded=0;whiteSpace=wrap;html=1;fillColor=#fff2cc;strokeColor=default;" vertex="1" parent="4gytuEafdw4eIJh5fJrU-20">
          <mxGeometry width="160" height="66.66666666666667" as="geometry" />
        </mxCell>
        <mxCell id="4gytuEafdw4eIJh5fJrU-22" value="" style="endArrow=none;html=1;rounded=0;" edge="1" parent="4gytuEafdw4eIJh5fJrU-20">
          <mxGeometry width="50" height="50" relative="1" as="geometry">
            <mxPoint y="66.66666666666667" as="sourcePoint" />
            <mxPoint x="160" as="targetPoint" />
          </mxGeometry>
        </mxCell>
        <mxCell id="4gytuEafdw4eIJh5fJrU-23" value="" style="endArrow=none;html=1;rounded=0;" edge="1" parent="4gytuEafdw4eIJh5fJrU-20">
          <mxGeometry width="50" height="50" relative="1" as="geometry">
            <mxPoint as="sourcePoint" />
            <mxPoint x="160" y="66.66666666666667" as="targetPoint" />
          </mxGeometry>
        </mxCell>
        <mxCell id="4gytuEafdw4eIJh5fJrU-24" value="" style="rounded=0;whiteSpace=wrap;html=1;fillColor=#f5f5f5;fontColor=#333333;strokeColor=default;" vertex="1" parent="4gytuEafdw4eIJh5fJrU-19">
          <mxGeometry y="66.66666666666667" width="160" height="33.333333333333336" as="geometry" />
        </mxCell>
        <mxCell id="4gytuEafdw4eIJh5fJrU-25" value="" style="group" vertex="1" connectable="0" parent="1">
          <mxGeometry x="320" y="390" width="160" height="100" as="geometry" />
        </mxCell>
        <mxCell id="4gytuEafdw4eIJh5fJrU-26" value="" style="group" vertex="1" connectable="0" parent="4gytuEafdw4eIJh5fJrU-25">
          <mxGeometry width="160" height="66.66666666666667" as="geometry" />
        </mxCell>
        <mxCell id="4gytuEafdw4eIJh5fJrU-27" value="" style="rounded=0;whiteSpace=wrap;html=1;fillColor=#fff2cc;strokeColor=default;" vertex="1" parent="4gytuEafdw4eIJh5fJrU-26">
          <mxGeometry width="160" height="66.66666666666667" as="geometry" />
        </mxCell>
        <mxCell id="4gytuEafdw4eIJh5fJrU-28" value="" style="endArrow=none;html=1;rounded=0;" edge="1" parent="4gytuEafdw4eIJh5fJrU-26">
          <mxGeometry width="50" height="50" relative="1" as="geometry">
            <mxPoint y="66.66666666666667" as="sourcePoint" />
            <mxPoint x="160" as="targetPoint" />
          </mxGeometry>
        </mxCell>
        <mxCell id="4gytuEafdw4eIJh5fJrU-29" value="" style="endArrow=none;html=1;rounded=0;" edge="1" parent="4gytuEafdw4eIJh5fJrU-26">
          <mxGeometry width="50" height="50" relative="1" as="geometry">
            <mxPoint as="sourcePoint" />
            <mxPoint x="160" y="66.66666666666667" as="targetPoint" />
          </mxGeometry>
        </mxCell>
        <mxCell id="4gytuEafdw4eIJh5fJrU-30" value="" style="rounded=0;whiteSpace=wrap;html=1;fillColor=#f5f5f5;fontColor=#333333;strokeColor=default;" vertex="1" parent="4gytuEafdw4eIJh5fJrU-25">
          <mxGeometry y="66.66666666666667" width="160" height="33.333333333333336" as="geometry" />
        </mxCell>
        <mxCell id="4gytuEafdw4eIJh5fJrU-31" value="" style="group" vertex="1" connectable="0" parent="1">
          <mxGeometry x="520" y="390" width="160" height="100" as="geometry" />
        </mxCell>
        <mxCell id="4gytuEafdw4eIJh5fJrU-32" value="" style="group" vertex="1" connectable="0" parent="4gytuEafdw4eIJh5fJrU-31">
          <mxGeometry width="160" height="66.66666666666667" as="geometry" />
        </mxCell>
        <mxCell id="4gytuEafdw4eIJh5fJrU-33" value="" style="rounded=0;whiteSpace=wrap;html=1;fillColor=#fff2cc;strokeColor=default;" vertex="1" parent="4gytuEafdw4eIJh5fJrU-32">
          <mxGeometry width="160" height="66.66666666666667" as="geometry" />
        </mxCell>
        <mxCell id="4gytuEafdw4eIJh5fJrU-34" value="" style="endArrow=none;html=1;rounded=0;" edge="1" parent="4gytuEafdw4eIJh5fJrU-32">
          <mxGeometry width="50" height="50" relative="1" as="geometry">
            <mxPoint y="66.66666666666667" as="sourcePoint" />
            <mxPoint x="160" as="targetPoint" />
          </mxGeometry>
        </mxCell>
        <mxCell id="4gytuEafdw4eIJh5fJrU-35" value="" style="endArrow=none;html=1;rounded=0;" edge="1" parent="4gytuEafdw4eIJh5fJrU-32">
          <mxGeometry width="50" height="50" relative="1" as="geometry">
            <mxPoint as="sourcePoint" />
            <mxPoint x="160" y="66.66666666666667" as="targetPoint" />
          </mxGeometry>
        </mxCell>
        <mxCell id="4gytuEafdw4eIJh5fJrU-36" value="" style="rounded=0;whiteSpace=wrap;html=1;fillColor=#f5f5f5;fontColor=#333333;strokeColor=default;" vertex="1" parent="4gytuEafdw4eIJh5fJrU-31">
          <mxGeometry y="66.66666666666667" width="160" height="33.333333333333336" as="geometry" />
        </mxCell>
        <mxCell id="4gytuEafdw4eIJh5fJrU-37" value="" style="rounded=0;whiteSpace=wrap;html=1;fillColor=#f5f5f5;fontColor=#333333;strokeColor=default;" vertex="1" parent="1">
          <mxGeometry x="240" y="180" width="320" height="40" as="geometry" />
        </mxCell>
        <mxCell id="PU-30czxZWV6hY45WK5M-1" value="" style="endArrow=classic;startArrow=classic;html=1;rounded=0;fillColor=#dae8fc;strokeColor=#6c8ebf;strokeWidth=3;" edge="1" parent="1">
          <mxGeometry width="50" height="50" relative="1" as="geometry">
            <mxPoint x="690" y="520" as="sourcePoint" />
            <mxPoint x="690" y="180" as="targetPoint" />
          </mxGeometry>
        </mxCell>
        <mxCell id="s9hv3354p3Cu9Nluo98H-1" value="" style="rounded=0;whiteSpace=wrap;html=1;fillColor=#f5f5f5;fontColor=#333333;strokeColor=default;" vertex="1" parent="1">
          <mxGeometry x="840" y="120" width="280" height="40" as="geometry" />
        </mxCell>
        <mxCell id="s9hv3354p3Cu9Nluo98H-2" value="" style="rounded=0;whiteSpace=wrap;html=1;" vertex="1" parent="1">
          <mxGeometry x="840" y="160" width="280" height="470" as="geometry" />
        </mxCell>
        <mxCell id="s9hv3354p3Cu9Nluo98H-6" value="" style="rounded=0;whiteSpace=wrap;html=1;fillColor=#f5f5f5;fontColor=#333333;strokeColor=default;" vertex="1" parent="1">
          <mxGeometry x="880" y="190" width="200" height="40" as="geometry" />
        </mxCell>
        <mxCell id="s9hv3354p3Cu9Nluo98H-27" value="" style="endArrow=classic;startArrow=classic;html=1;rounded=0;fillColor=#dae8fc;strokeColor=#6c8ebf;strokeWidth=3;" edge="1" parent="1">
          <mxGeometry width="50" height="50" relative="1" as="geometry">
            <mxPoint x="1090" y="660" as="sourcePoint" />
            <mxPoint x="1090" y="200" as="targetPoint" />
          </mxGeometry>
        </mxCell>
        <mxCell id="s9hv3354p3Cu9Nluo98H-29" value="" style="group" vertex="1" connectable="0" parent="1">
          <mxGeometry x="900" y="250" width="160" height="100" as="geometry" />
        </mxCell>
        <mxCell id="s9hv3354p3Cu9Nluo98H-30" value="" style="group" vertex="1" connectable="0" parent="s9hv3354p3Cu9Nluo98H-29">
          <mxGeometry width="160" height="66.66666666666667" as="geometry" />
        </mxCell>
        <mxCell id="s9hv3354p3Cu9Nluo98H-31" value="" style="rounded=0;whiteSpace=wrap;html=1;fillColor=#fff2cc;strokeColor=default;" vertex="1" parent="s9hv3354p3Cu9Nluo98H-30">
          <mxGeometry width="160" height="66.66666666666667" as="geometry" />
        </mxCell>
        <mxCell id="s9hv3354p3Cu9Nluo98H-32" value="" style="endArrow=none;html=1;rounded=0;" edge="1" parent="s9hv3354p3Cu9Nluo98H-30">
          <mxGeometry width="50" height="50" relative="1" as="geometry">
            <mxPoint y="66.66666666666667" as="sourcePoint" />
            <mxPoint x="160" as="targetPoint" />
          </mxGeometry>
        </mxCell>
        <mxCell id="s9hv3354p3Cu9Nluo98H-33" value="" style="endArrow=none;html=1;rounded=0;" edge="1" parent="s9hv3354p3Cu9Nluo98H-30">
          <mxGeometry width="50" height="50" relative="1" as="geometry">
            <mxPoint as="sourcePoint" />
            <mxPoint x="160" y="66.66666666666667" as="targetPoint" />
          </mxGeometry>
        </mxCell>
        <mxCell id="s9hv3354p3Cu9Nluo98H-34" value="" style="rounded=0;whiteSpace=wrap;html=1;fillColor=#f5f5f5;fontColor=#333333;strokeColor=default;" vertex="1" parent="s9hv3354p3Cu9Nluo98H-29">
          <mxGeometry y="66.66666666666667" width="160" height="33.333333333333336" as="geometry" />
        </mxCell>
        <mxCell id="s9hv3354p3Cu9Nluo98H-35" value="" style="group" vertex="1" connectable="0" parent="1">
          <mxGeometry x="900" y="370" width="160" height="100" as="geometry" />
        </mxCell>
        <mxCell id="s9hv3354p3Cu9Nluo98H-36" value="" style="group" vertex="1" connectable="0" parent="s9hv3354p3Cu9Nluo98H-35">
          <mxGeometry width="160" height="66.66666666666667" as="geometry" />
        </mxCell>
        <mxCell id="s9hv3354p3Cu9Nluo98H-37" value="" style="rounded=0;whiteSpace=wrap;html=1;fillColor=#fff2cc;strokeColor=default;" vertex="1" parent="s9hv3354p3Cu9Nluo98H-36">
          <mxGeometry width="160" height="66.66666666666667" as="geometry" />
        </mxCell>
        <mxCell id="s9hv3354p3Cu9Nluo98H-38" value="" style="endArrow=none;html=1;rounded=0;" edge="1" parent="s9hv3354p3Cu9Nluo98H-36">
          <mxGeometry width="50" height="50" relative="1" as="geometry">
            <mxPoint y="66.66666666666667" as="sourcePoint" />
            <mxPoint x="160" as="targetPoint" />
          </mxGeometry>
        </mxCell>
        <mxCell id="s9hv3354p3Cu9Nluo98H-39" value="" style="endArrow=none;html=1;rounded=0;" edge="1" parent="s9hv3354p3Cu9Nluo98H-36">
          <mxGeometry width="50" height="50" relative="1" as="geometry">
            <mxPoint as="sourcePoint" />
            <mxPoint x="160" y="66.66666666666667" as="targetPoint" />
          </mxGeometry>
        </mxCell>
        <mxCell id="s9hv3354p3Cu9Nluo98H-40" value="" style="rounded=0;whiteSpace=wrap;html=1;fillColor=#f5f5f5;fontColor=#333333;strokeColor=default;" vertex="1" parent="s9hv3354p3Cu9Nluo98H-35">
          <mxGeometry y="66.66666666666667" width="160" height="33.333333333333336" as="geometry" />
        </mxCell>
        <mxCell id="s9hv3354p3Cu9Nluo98H-41" value="" style="group" vertex="1" connectable="0" parent="1">
          <mxGeometry x="900" y="490" width="160" height="100" as="geometry" />
        </mxCell>
        <mxCell id="s9hv3354p3Cu9Nluo98H-42" value="" style="group" vertex="1" connectable="0" parent="s9hv3354p3Cu9Nluo98H-41">
          <mxGeometry width="160" height="66.66666666666667" as="geometry" />
        </mxCell>
        <mxCell id="s9hv3354p3Cu9Nluo98H-43" value="" style="rounded=0;whiteSpace=wrap;html=1;fillColor=#fff2cc;strokeColor=default;" vertex="1" parent="s9hv3354p3Cu9Nluo98H-42">
          <mxGeometry width="160" height="66.66666666666667" as="geometry" />
        </mxCell>
        <mxCell id="s9hv3354p3Cu9Nluo98H-44" value="" style="endArrow=none;html=1;rounded=0;" edge="1" parent="s9hv3354p3Cu9Nluo98H-42">
          <mxGeometry width="50" height="50" relative="1" as="geometry">
            <mxPoint y="66.66666666666667" as="sourcePoint" />
            <mxPoint x="160" as="targetPoint" />
          </mxGeometry>
        </mxCell>
        <mxCell id="s9hv3354p3Cu9Nluo98H-45" value="" style="endArrow=none;html=1;rounded=0;" edge="1" parent="s9hv3354p3Cu9Nluo98H-42">
          <mxGeometry width="50" height="50" relative="1" as="geometry">
            <mxPoint as="sourcePoint" />
            <mxPoint x="160" y="66.66666666666667" as="targetPoint" />
          </mxGeometry>
        </mxCell>
        <mxCell id="s9hv3354p3Cu9Nluo98H-46" value="" style="rounded=0;whiteSpace=wrap;html=1;fillColor=#f5f5f5;fontColor=#333333;strokeColor=default;" vertex="1" parent="s9hv3354p3Cu9Nluo98H-41">
          <mxGeometry y="66.66666666666667" width="160" height="33.333333333333336" as="geometry" />
        </mxCell>
        <mxCell id="s9hv3354p3Cu9Nluo98H-48" value="" style="group" vertex="1" connectable="0" parent="1">
          <mxGeometry x="900" y="610" width="160" height="100" as="geometry" />
        </mxCell>
        <mxCell id="s9hv3354p3Cu9Nluo98H-49" value="" style="group" vertex="1" connectable="0" parent="s9hv3354p3Cu9Nluo98H-48">
          <mxGeometry width="160" height="66.66666666666667" as="geometry" />
        </mxCell>
        <mxCell id="s9hv3354p3Cu9Nluo98H-50" value="" style="rounded=0;whiteSpace=wrap;html=1;fillColor=#fff2cc;strokeColor=default;" vertex="1" parent="s9hv3354p3Cu9Nluo98H-49">
          <mxGeometry width="160" height="66.66666666666667" as="geometry" />
        </mxCell>
        <mxCell id="s9hv3354p3Cu9Nluo98H-51" value="" style="endArrow=none;html=1;rounded=0;" edge="1" parent="s9hv3354p3Cu9Nluo98H-49">
          <mxGeometry width="50" height="50" relative="1" as="geometry">
            <mxPoint y="66.66666666666667" as="sourcePoint" />
            <mxPoint x="160" as="targetPoint" />
          </mxGeometry>
        </mxCell>
        <mxCell id="s9hv3354p3Cu9Nluo98H-52" value="" style="endArrow=none;html=1;rounded=0;" edge="1" parent="s9hv3354p3Cu9Nluo98H-49">
          <mxGeometry width="50" height="50" relative="1" as="geometry">
            <mxPoint as="sourcePoint" />
            <mxPoint x="160" y="66.66666666666667" as="targetPoint" />
          </mxGeometry>
        </mxCell>
        <mxCell id="s9hv3354p3Cu9Nluo98H-53" value="" style="rounded=0;whiteSpace=wrap;html=1;fillColor=#f5f5f5;fontColor=#333333;strokeColor=default;" vertex="1" parent="s9hv3354p3Cu9Nluo98H-48">
          <mxGeometry y="66.66666666666667" width="160" height="33.333333333333336" as="geometry" />
        </mxCell>
      </root>
    </mxGraphModel>
  </diagram>
  <diagram id="g-hUSwDCYcYAp4xhx11g" name="ProjectPage">
    <mxGraphModel dx="2049" dy="1194" grid="1" gridSize="10" guides="1" tooltips="1" connect="1" arrows="1" fold="1" page="1" pageScale="1" pageWidth="1169" pageHeight="827" math="0" shadow="0">
      <root>
        <mxCell id="0" />
        <mxCell id="1" parent="0" />
        <mxCell id="xe9CzU4x-UxWGMqiIaLn-1" value="" style="rounded=0;whiteSpace=wrap;html=1;" vertex="1" parent="1">
          <mxGeometry x="80" y="40" width="640" height="530" as="geometry" />
        </mxCell>
        <mxCell id="xe9CzU4x-UxWGMqiIaLn-3" value="" style="rounded=0;whiteSpace=wrap;html=1;fillColor=#f5f5f5;fontColor=#333333;strokeColor=default;" vertex="1" parent="1">
          <mxGeometry x="130" y="180" width="460" height="100" as="geometry" />
        </mxCell>
        <mxCell id="xe9CzU4x-UxWGMqiIaLn-4" value="" style="rounded=0;whiteSpace=wrap;html=1;fillColor=#f5f5f5;fontColor=#333333;strokeColor=default;" vertex="1" parent="1">
          <mxGeometry x="130" y="120" width="265" height="40" as="geometry" />
        </mxCell>
        <mxCell id="xe9CzU4x-UxWGMqiIaLn-23" value="" style="rounded=0;whiteSpace=wrap;html=1;fillColor=#f5f5f5;fontColor=#333333;strokeColor=default;" vertex="1" parent="1">
          <mxGeometry x="80" y="40" width="640" height="40" as="geometry" />
        </mxCell>
        <mxCell id="Vk7-_-ntPsNYLx4VJYSH-1" value="" style="group" vertex="1" connectable="0" parent="1">
          <mxGeometry x="200" y="300" width="320" height="120" as="geometry" />
        </mxCell>
        <mxCell id="Vk7-_-ntPsNYLx4VJYSH-2" value="" style="rounded=0;whiteSpace=wrap;html=1;fillColor=#fff2cc;strokeColor=default;" vertex="1" parent="Vk7-_-ntPsNYLx4VJYSH-1">
          <mxGeometry width="320" height="120" as="geometry" />
        </mxCell>
        <mxCell id="Vk7-_-ntPsNYLx4VJYSH-3" value="" style="endArrow=none;html=1;rounded=0;" edge="1" parent="Vk7-_-ntPsNYLx4VJYSH-1">
          <mxGeometry width="50" height="50" relative="1" as="geometry">
            <mxPoint y="120" as="sourcePoint" />
            <mxPoint x="320" as="targetPoint" />
          </mxGeometry>
        </mxCell>
        <mxCell id="Vk7-_-ntPsNYLx4VJYSH-4" value="" style="endArrow=none;html=1;rounded=0;" edge="1" parent="Vk7-_-ntPsNYLx4VJYSH-1">
          <mxGeometry width="50" height="50" relative="1" as="geometry">
            <mxPoint as="sourcePoint" />
            <mxPoint x="320" y="120" as="targetPoint" />
          </mxGeometry>
        </mxCell>
        <mxCell id="Vk7-_-ntPsNYLx4VJYSH-5" value="" style="rounded=0;whiteSpace=wrap;html=1;fillColor=#f5f5f5;fontColor=#333333;strokeColor=default;" vertex="1" parent="1">
          <mxGeometry x="130" y="440" width="460" height="100" as="geometry" />
        </mxCell>
        <mxCell id="6BVbcKOJkTsLHvesrFBK-1" value="" style="endArrow=classic;startArrow=classic;html=1;rounded=0;fillColor=#dae8fc;strokeColor=#6c8ebf;strokeWidth=3;" edge="1" parent="1">
          <mxGeometry width="50" height="50" relative="1" as="geometry">
            <mxPoint x="690" y="600" as="sourcePoint" />
            <mxPoint x="690" y="120" as="targetPoint" />
          </mxGeometry>
        </mxCell>
        <mxCell id="tcXCZQ8SVeSW6xJFDNLB-1" value="" style="rounded=0;whiteSpace=wrap;html=1;fillColor=#f5f5f5;fontColor=#333333;strokeColor=default;" vertex="1" parent="1">
          <mxGeometry x="840" y="40" width="280" height="40" as="geometry" />
        </mxCell>
        <mxCell id="tcXCZQ8SVeSW6xJFDNLB-2" value="" style="rounded=0;whiteSpace=wrap;html=1;" vertex="1" parent="1">
          <mxGeometry x="840" y="80" width="280" height="470" as="geometry" />
        </mxCell>
        <mxCell id="tcXCZQ8SVeSW6xJFDNLB-3" value="" style="rounded=0;whiteSpace=wrap;html=1;fillColor=#f5f5f5;fontColor=#333333;strokeColor=default;" vertex="1" parent="1">
          <mxGeometry x="880" y="110" width="200" height="40" as="geometry" />
        </mxCell>
        <mxCell id="tcXCZQ8SVeSW6xJFDNLB-4" value="" style="endArrow=classic;startArrow=classic;html=1;rounded=0;fillColor=#dae8fc;strokeColor=#6c8ebf;strokeWidth=3;" edge="1" parent="1">
          <mxGeometry width="50" height="50" relative="1" as="geometry">
            <mxPoint x="1090" y="580" as="sourcePoint" />
            <mxPoint x="1090" y="120" as="targetPoint" />
          </mxGeometry>
        </mxCell>
        <mxCell id="tcXCZQ8SVeSW6xJFDNLB-29" value="" style="rounded=0;whiteSpace=wrap;html=1;fillColor=#f5f5f5;fontColor=#333333;strokeColor=default;" vertex="1" parent="1">
          <mxGeometry x="880" y="170" width="200" height="150" as="geometry" />
        </mxCell>
        <mxCell id="tcXCZQ8SVeSW6xJFDNLB-30" value="" style="group" vertex="1" connectable="0" parent="1">
          <mxGeometry x="880" y="340" width="200" height="110" as="geometry" />
        </mxCell>
        <mxCell id="tcXCZQ8SVeSW6xJFDNLB-31" value="" style="rounded=0;whiteSpace=wrap;html=1;fillColor=#fff2cc;strokeColor=default;" vertex="1" parent="tcXCZQ8SVeSW6xJFDNLB-30">
          <mxGeometry width="200" height="110" as="geometry" />
        </mxCell>
        <mxCell id="tcXCZQ8SVeSW6xJFDNLB-32" value="" style="endArrow=none;html=1;rounded=0;" edge="1" parent="tcXCZQ8SVeSW6xJFDNLB-30">
          <mxGeometry width="50" height="50" relative="1" as="geometry">
            <mxPoint y="110" as="sourcePoint" />
            <mxPoint x="200" as="targetPoint" />
          </mxGeometry>
        </mxCell>
        <mxCell id="tcXCZQ8SVeSW6xJFDNLB-33" value="" style="endArrow=none;html=1;rounded=0;" edge="1" parent="tcXCZQ8SVeSW6xJFDNLB-30">
          <mxGeometry width="50" height="50" relative="1" as="geometry">
            <mxPoint as="sourcePoint" />
            <mxPoint x="200" y="110" as="targetPoint" />
          </mxGeometry>
        </mxCell>
        <mxCell id="tcXCZQ8SVeSW6xJFDNLB-34" value="" style="rounded=0;whiteSpace=wrap;html=1;fillColor=#f5f5f5;fontColor=#333333;strokeColor=default;" vertex="1" parent="1">
          <mxGeometry x="880" y="470" width="200" height="150" as="geometry" />
        </mxCell>
      </root>
    </mxGraphModel>
  </diagram>
  <diagram id="mPVd1x4S2r3nZ-Zg6iaz" name="Contact">
    <mxGraphModel dx="1687" dy="984" grid="1" gridSize="10" guides="1" tooltips="1" connect="1" arrows="1" fold="1" page="1" pageScale="1" pageWidth="1169" pageHeight="827" math="0" shadow="0">
      <root>
        <mxCell id="0" />
        <mxCell id="1" parent="0" />
        <mxCell id="LSy1mEiDr5sgNR_cj3Ju-1" value="" style="rounded=0;whiteSpace=wrap;html=1;" vertex="1" parent="1">
          <mxGeometry x="80" y="40" width="640" height="360" as="geometry" />
        </mxCell>
        <mxCell id="LSy1mEiDr5sgNR_cj3Ju-2" value="" style="ellipse;whiteSpace=wrap;html=1;aspect=fixed;fillColor=#fff2cc;strokeColor=default;" vertex="1" parent="1">
          <mxGeometry x="160" y="120" width="140" height="140" as="geometry" />
        </mxCell>
        <mxCell id="LSy1mEiDr5sgNR_cj3Ju-3" value="" style="rounded=0;whiteSpace=wrap;html=1;fillColor=#f5f5f5;fontColor=#333333;strokeColor=default;" vertex="1" parent="1">
          <mxGeometry x="345" y="170" width="265" height="100" as="geometry" />
        </mxCell>
        <mxCell id="LSy1mEiDr5sgNR_cj3Ju-4" value="" style="rounded=0;whiteSpace=wrap;html=1;fillColor=#f5f5f5;fontColor=#333333;strokeColor=default;" vertex="1" parent="1">
          <mxGeometry x="345" y="120" width="265" height="40" as="geometry" />
        </mxCell>
        <mxCell id="LSy1mEiDr5sgNR_cj3Ju-23" value="" style="rounded=0;whiteSpace=wrap;html=1;fillColor=#f5f5f5;fontColor=#333333;strokeColor=default;" vertex="1" parent="1">
          <mxGeometry x="80" y="40" width="640" height="40" as="geometry" />
        </mxCell>
        <mxCell id="LSy1mEiDr5sgNR_cj3Ju-25" value="" style="rounded=0;whiteSpace=wrap;html=1;fillColor=#f5f5f5;fontColor=#333333;strokeColor=default;" vertex="1" parent="1">
          <mxGeometry x="345" y="280" width="100" height="30" as="geometry" />
        </mxCell>
        <mxCell id="8QVvnGACDEz6Wj_WIibq-1" value="" style="rounded=0;whiteSpace=wrap;html=1;fillColor=#f5f5f5;fontColor=#333333;strokeColor=default;" vertex="1" parent="1">
          <mxGeometry x="840" y="40" width="280" height="40" as="geometry" />
        </mxCell>
        <mxCell id="8QVvnGACDEz6Wj_WIibq-2" value="" style="rounded=0;whiteSpace=wrap;html=1;" vertex="1" parent="1">
          <mxGeometry x="840" y="80" width="280" height="470" as="geometry" />
        </mxCell>
        <mxCell id="8QVvnGACDEz6Wj_WIibq-3" value="" style="ellipse;whiteSpace=wrap;html=1;aspect=fixed;fillColor=#fff2cc;strokeColor=default;" vertex="1" parent="1">
          <mxGeometry x="910" y="120" width="140" height="140" as="geometry" />
        </mxCell>
        <mxCell id="8QVvnGACDEz6Wj_WIibq-4" value="" style="rounded=0;whiteSpace=wrap;html=1;fillColor=#f5f5f5;fontColor=#333333;strokeColor=default;" vertex="1" parent="1">
          <mxGeometry x="870" y="350" width="230" height="140" as="geometry" />
        </mxCell>
        <mxCell id="8QVvnGACDEz6Wj_WIibq-5" value="" style="rounded=0;whiteSpace=wrap;html=1;fillColor=#f5f5f5;fontColor=#333333;strokeColor=default;" vertex="1" parent="1">
          <mxGeometry x="870" y="300" width="230" height="40" as="geometry" />
        </mxCell>
        <mxCell id="8QVvnGACDEz6Wj_WIibq-7" value="" style="endArrow=classic;startArrow=classic;html=1;rounded=0;fillColor=#dae8fc;strokeColor=#6c8ebf;strokeWidth=3;" edge="1" parent="1">
          <mxGeometry width="50" height="50" relative="1" as="geometry">
            <mxPoint x="1090" y="580" as="sourcePoint" />
            <mxPoint x="1090" y="120" as="targetPoint" />
          </mxGeometry>
        </mxCell>
        <mxCell id="8QVvnGACDEz6Wj_WIibq-8" value="" style="rounded=0;whiteSpace=wrap;html=1;fillColor=#f5f5f5;fontColor=#333333;strokeColor=default;" vertex="1" parent="1">
          <mxGeometry x="930" y="500" width="100" height="30" as="geometry" />
        </mxCell>
      </root>
    </mxGraphModel>
  </diagram>
</mxfile>
